<svg width="512" height="512" viewBox="0 0 512 512" fill="none" xmlns="http://www.w3.org/2000/svg">
<path d="M310.423 410.675C224.837 410.675 155.186 341.146 155.186 255.709C155.186 211.718 174.018 169.636 206.873 140.251C239.7 110.895 283.855 96.8677 327.98 101.727C362.806 105.573 394.3 121.278 418.376 144.561C389.287 114.655 348.609 96 303.643 96H210.989C122.766 96 51 167.641 51 255.709C51 343.778 122.766 415.418 210.989 415.418H303.643C347.856 415.418 387.954 397.4 416.927 368.362C388.244 395.375 350.116 410.675 310.423 410.675Z" fill="#38B885"/>
<path d="M399.053 298.568C395.051 306.939 389.861 314.818 383.453 321.944C364.867 342.684 338.221 354.589 310.357 354.589C256.281 354.589 212.296 310.647 212.296 256.595C212.296 228.787 224.213 202.166 244.973 183.57C263.182 167.261 286.059 158.6 310.299 158.6C314.068 158.6 317.838 158.803 321.665 159.238C355.763 163.003 384.816 184.757 399.053 214.651H460C443.212 154.979 390.992 109.328 327.986 102.376C283.826 97.5095 239.638 111.558 206.787 140.96C173.907 170.39 155.06 212.536 155.06 256.595C155.06 342.192 224.764 411.799 310.415 411.799C354.516 411.799 396.733 392.97 426.163 360.093C442.11 342.307 453.505 321.162 459.855 298.539H399.053V298.568Z" fill="white"/>
</svg>
